<svg id="Group_455" data-name="Group 455" xmlns="http://www.w3.org/2000/svg" xmlns:xlink="http://www.w3.org/1999/xlink" width="60" height="55.779" viewBox="0 0 60 55.779">
  <defs>
    <clipPath id="clip-path">
      <rect id="Rectangle_217" data-name="Rectangle 217" width="60" height="55.779" fill="#fff"/>
    </clipPath>
  </defs>
  <g id="Group_454" data-name="Group 454" clip-path="url(#clip-path)">
    <path id="Path_840" data-name="Path 840" d="M0,13.972A15.561,15.561,0,0,1,6.924,2.462a15.494,15.494,0,0,1,19.9,2.7l-5.38,5.481c2.618,2.341,4.821,5.7,8.317,6.785a10.423,10.423,0,0,0,6.625-.175c.364-.134,1.541-.788,1.665-.806a.322.322,0,0,1,.262.04L51.624,29.759A2.526,2.526,0,0,1,48.475,33.6L38.145,23.442l-3.1,3.087,9.9,9.9a2.489,2.489,0,0,1-3.637,3.4c-3.343-2.751-6.344-6.781-9.665-9.653l-.234-.12L28.362,33.1l9.727,9.7a2.524,2.524,0,0,1-2.237,4.337c-1.016-.2-1.629-1.159-2.535-1.68a7.153,7.153,0,0,0-5.309-.724A6.656,6.656,0,0,0,21.451,39.7a7.1,7.1,0,0,0-5.967-6.443,7.021,7.021,0,0,0-8.362-7.2c-.53.107-1.51.646-1.8.673a.466.466,0,0,1-.348-.114,14.046,14.046,0,0,1-1.907-2.073A16.575,16.575,0,0,1,0,16.545Z" transform="translate(0 -0.01)" fill="#fff"/>
    <path id="Path_841" data-name="Path 841" d="M209.356,13.963v2.573a32.391,32.391,0,0,1-.672,3.247,14.29,14.29,0,0,1-4.527,6.92L187.734,10.339c-1.874,2.012-3.8,3.649-6.762,3a7.911,7.911,0,0,1-3.958-2.714c3.689-3.321,6.734-7.866,11.538-9.652,9.46-3.517,20,2.841,20.8,12.985" transform="translate(-149.356 0)" fill="#fff"/>
    <path id="Path_842" data-name="Path 842" d="M166.856,313.163a2.484,2.484,0,0,1,2.849,3.193,10.569,10.569,0,0,1-3.013,3.309,2.507,2.507,0,0,1-3.61-3.019c.327-.958,2.75-3.322,3.775-3.484" transform="translate(-137.472 -264.201)" fill="#fff"/>
    <path id="Path_843" data-name="Path 843" d="M30.472,194.117a2.526,2.526,0,0,1,2.881,3.225A10.522,10.522,0,0,1,30,200.781a2.514,2.514,0,0,1-3.254-3.248c.375-.952,2.711-3.244,3.724-3.417" transform="translate(-22.417 -163.752)" fill="#fff"/>
    <path id="Path_844" data-name="Path 844" d="M112.886,281.808a2.522,2.522,0,0,1,2.251,4.12,19.541,19.541,0,0,1-2.234,2.215,2.5,2.5,0,0,1-3.567-3.443,24.749,24.749,0,0,1,2.465-2.453,2.471,2.471,0,0,1,1.085-.439" transform="translate(-91.819 -237.758)" fill="#fff"/>
    <path id="Path_845" data-name="Path 845" d="M69.086,240.653a2.52,2.52,0,0,1,2.25,4.01,24.567,24.567,0,0,1-2.468,2.449,2.516,2.516,0,0,1-3.39-3.618,13.8,13.8,0,0,1,2.966-2.654,3.006,3.006,0,0,1,.642-.187" transform="translate(-54.813 -203.04)" fill="#fff"/>
  </g>
</svg>
