<svg id="Group_453" data-name="Group 453" xmlns="http://www.w3.org/2000/svg" xmlns:xlink="http://www.w3.org/1999/xlink" width="47.24" height="56.388" viewBox="0 0 47.24 56.388">
  <defs>
    <clipPath id="clip-path">
      <rect id="Rectangle_216" data-name="Rectangle 216" width="47.24" height="56.388" fill="#fff"/>
    </clipPath>
  </defs>
  <g id="Group_452" data-name="Group 452" clip-path="url(#clip-path)">
    <path id="Path_816" data-name="Path 816" d="M2.921,92.438c.8.727,1.987,2.7,2.832,3.68,2.255,2.608,5.3,5.734,9.123,4.778,2.613-.653,5.043-4.992,7.891-6.126,4.1-1.634,7.092,5.284,10.46,6.126,3.845.961,6.924-2.224,9.18-4.845.679-.789,2.3-3.27,2.888-3.7a1.431,1.431,0,0,1,2.1,1.864c-1.492,3.517-4.689,7.186-6.572,10.546-1.2,2.142-1.818,5.626-2.6,8.072-.826,2.6-1.695,5.209-2.669,7.751-.276.72-1.183,3.359-1.66,3.674a1.4,1.4,0,0,1-2.166-1.037l1.251-8.5c-.332-.069-.213.088-.307.245-1.687,2.809-3.1,5.784-4.832,8.57-1.132.747-2.2.163-2.022-1.279.257-2.079,1.2-4.756,1.644-6.915,1.122-5.451,1.993-9.584-.787-14.723a26.313,26.313,0,0,0-2.12-3.337.757.757,0,0,0-.949-.061,29.5,29.5,0,0,0-2.183,3.4c-2.78,5.138-1.909,9.271-.787,14.723.443,2.15,1.394,4.848,1.644,6.914.169,1.4-.9,2.047-2.022,1.279-1.732-2.784-3.145-5.762-4.832-8.57-.094-.157.025-.314-.307-.245l1.251,8.5a1.4,1.4,0,0,1-2.166,1.037c-.5-.327-1.381-2.944-1.66-3.674-1.02-2.664-1.929-5.4-2.793-8.123-.753-2.369-1.3-5.609-2.472-7.7-1.333-2.379-3.191-4.757-4.617-7.167a30.889,30.889,0,0,1-2.03-3.551,1.43,1.43,0,0,1,2.287-1.606" transform="translate(-0.438 -76.475)" fill="#fff"/>
    <path id="Path_817" data-name="Path 817" d="M57.1,13.812c.03.383-.446.414-.682.619-1.844,1.6-3.11,3.866-4.838,5.58a8.547,8.547,0,0,0-1.115-2.356,5.336,5.336,0,0,0-4.543-1.807,84.121,84.121,0,0,0-2.08-10.055c-.025-.093.043-.412-.2-.292-.416.205-2.661,5.7-2.921,6.507a25.531,25.531,0,0,0-1.048,5.155c-.159.2-.131.065-.253,0-.249-.128-.475-.359-.757-.486a5.934,5.934,0,0,0-6.187.6c-.206,0-.291-1.574-.346-1.884a32.285,32.285,0,0,0-3.537-9.612c-.085-.131-.134-.316-.333-.287L26.1,15.849a11.78,11.78,0,0,1-1.757.128A4.735,4.735,0,0,0,20.5,19.89c-.163.118-1.012-.811-1.179-.99a49.824,49.824,0,0,1-3.1-3.973l-1.305-1.052c.766-.028,1.517.105,2.295.06,4.693-.275,5.519-2.892,7.068-6.7C25.029,5.4,25.753,2.314,26.638.78A1.3,1.3,0,0,1,28.327.1c.479.153,1.627,2.33,2.051,2.91,3.99,5.458,7.374,5.37,11.319-.072A27.692,27.692,0,0,1,43.39.288a1.33,1.33,0,0,1,2.034.575c.894,1.657,1.544,4.475,2.314,6.37.682,1.678,1.708,4.453,3.168,5.516,1.6,1.164,4.3,1.33,6.193,1.064" transform="translate(-12.397 0)" fill="#fff"/>
    <path id="Path_818" data-name="Path 818" d="M23.674,39.125c4.158-.567,4.758,5.626.823,6.032-3.988.411-4.57-5.521-.823-6.032" transform="translate(-17.581 -32.475)" fill="#fff"/>
    <path id="Path_819" data-name="Path 819" d="M60.041,102.109a3.03,3.03,0,1,1-2.262,1.956,3.142,3.142,0,0,1,2.262-1.956" transform="translate(-47.872 -84.794)" fill="#fff"/>
    <path id="Path_820" data-name="Path 820" d="M224.485,39.566c2.466-2.434,6.65.787,4.649,3.843-2.414,3.687-7.845-.688-4.649-3.843" transform="translate(-185.693 -32.161)" fill="#fff"/>
    <path id="Path_821" data-name="Path 821" d="M188.754,102.453c3.8-.054,4.1,5.638.477,6.03-4.351.471-4.554-5.973-.477-6.03" transform="translate(-154.389 -85.12)" fill="#fff"/>
    <path id="Path_822" data-name="Path 822" d="M124.287.123c4.537-.773,4.893,6.063.611,6-3.7-.053-3.915-5.438-.611-6" transform="translate(-101.326 -0.051)" fill="#fff"/>
    <path id="Path_823" data-name="Path 823" d="M96.086,319.921c.733-.164,3.216.2,2.445,1.45-.448.726-2.812.334-3.006-.325a.863.863,0,0,1,.561-1.126" transform="translate(-79.33 -265.768)" fill="#fff"/>
    <path id="Path_824" data-name="Path 824" d="M166.745,320.114c.688-.039,1.332-.016,1.276.895-.061.988-3.182,1.477-3.182.123,0-.867,1.257-.981,1.906-1.018" transform="translate(-136.952 -265.95)" fill="#fff"/>
    <path id="Path_825" data-name="Path 825" d="M130.53,323.5a12.823,12.823,0,0,1,2.309,0,.884.884,0,0,1,.135,1.452,6.014,6.014,0,0,1-2.414.082.862.862,0,0,1-.031-1.534" transform="translate(-108.07 -268.731)" fill="#fff"/>
    <path id="Path_826" data-name="Path 826" d="M63.732,312.577a.846.846,0,0,1,.527-1.459c.56-.022,2.25.528,2.29,1.193.088,1.442-2.319.759-2.817.266" transform="translate(-52.736 -258.484)" fill="#fff"/>
    <path id="Path_827" data-name="Path 827" d="M200.4,311.366a.981.981,0,0,1-.057,1.339,8.368,8.368,0,0,1-1.84.622.831.831,0,0,1-.519-1.525c.438-.288,1.985-.844,2.416-.436" transform="translate(-164.166 -258.57)" fill="#fff"/>
    <path id="Path_828" data-name="Path 828" d="M226.439,299.586a.911.911,0,0,1-.19-1.048,3.083,3.083,0,0,1,2.145-1.093c1.837.583-.987,2.923-1.955,2.141" transform="translate(-187.904 -247.109)" fill="#fff"/>
    <path id="Path_829" data-name="Path 829" d="M37.078,297.317a3.841,3.841,0,0,1,1.953.973c.556.756-.191,1.572-1.058,1.306a9.561,9.561,0,0,1-1.361-.87.856.856,0,0,1,.466-1.408" transform="translate(-30.243 -247.013)" fill="#fff"/>
    <path id="Path_830" data-name="Path 830" d="M17.2,197.783c.918-.783,1.914.139,1.253,1.191a9.3,9.3,0,0,1-.856.88.845.845,0,0,1-1.308-.933,7.535,7.535,0,0,1,.91-1.139" transform="translate(-13.516 -164.08)" fill="#fff"/>
    <path id="Path_831" data-name="Path 831" d="M250.174,197.783a7.536,7.536,0,0,1,.91,1.139.845.845,0,0,1-1.308.933,9.3,9.3,0,0,1-.856-.88c-.66-1.052.335-1.974,1.253-1.191" transform="translate(-206.632 -164.08)" fill="#fff"/>
    <path id="Path_832" data-name="Path 832" d="M18.526,282.153c-.857.85-2.959-1.258-1.952-2.136.828-.723,2.723,1.371,1.952,2.136" transform="translate(-13.548 -232.521)" fill="#fff"/>
    <path id="Path_833" data-name="Path 833" d="M248.855,282.153c-.771-.765,1.124-2.859,1.952-2.136,1.007.879-1.1,2.987-1.952,2.136" transform="translate(-206.605 -232.521)" fill="#fff"/>
    <path id="Path_834" data-name="Path 834" d="M4.163,219.52c-.482-.6.279-2.792,1.449-2.257,1.2.55-.43,3.521-1.449,2.257" transform="translate(-3.336 -180.438)" fill="#fff"/>
    <path id="Path_835" data-name="Path 835" d="M265.079,219.52c-1.019,1.263-2.653-1.707-1.449-2.257,1.17-.535,1.932,1.659,1.449,2.257" transform="translate(-218.677 -180.438)" fill="#fff"/>
    <path id="Path_836" data-name="Path 836" d="M4.617,259.783a1.211,1.211,0,0,1,.462-.026c.586.1,1.647,2.19.445,2.555-1.137.345-2.139-2.252-.907-2.528" transform="translate(-3.366 -215.803)" fill="#fff"/>
    <path id="Path_837" data-name="Path 837" d="M264.139,259.651c1.857-.551,1.086,2.659-.142,2.58-1.422-.091-.434-2.409.142-2.58" transform="translate(-218.727 -215.672)" fill="#fff"/>
    <path id="Path_838" data-name="Path 838" d="M268.963,238.539c1.664-.366,1.4,2.423.462,2.582-1.325.224-1.423-2.37-.462-2.582" transform="translate(-222.93 -198.157)" fill="#fff"/>
    <path id="Path_839" data-name="Path 839" d="M.632,238.55c1.861-.409,1.367,3.375-.161,2.464-.612-.365-.694-2.276.161-2.464" transform="translate(0 -198.167)" fill="#fff"/>
  </g>
</svg>
