<svg id="Group_448" data-name="Group 448" xmlns="http://www.w3.org/2000/svg" xmlns:xlink="http://www.w3.org/1999/xlink" width="50.249" height="48.859" viewBox="0 0 50.249 48.859">
  <defs>
    <clipPath id="clip-path">
      <rect id="Rectangle_213" data-name="Rectangle 213" width="50.249" height="48.859" fill="#fff"/>
    </clipPath>
  </defs>
  <g id="Group_447" data-name="Group 447" clip-path="url(#clip-path)">
    <path id="Path_811" data-name="Path 811" d="M41.9,82.094H36.249a1.928,1.928,0,0,0-.465.247c-.39.357-.128,1.177.16,1.177H47.7c-.359-.589-1.695-1.26-1.076-2.043.32-.406.7-.317,1.08-.047a24.248,24.248,0,0,1,2.287,2.291c.351.468.351.656,0,1.123A24.063,24.063,0,0,1,47.7,87.134c-.59.425-1.3.118-1.225-.6.058-.575,1.081-1.018,1.221-1.587H41.9V98.221a2.461,2.461,0,0,1-2.087,1.881l-29.2.005A2.435,2.435,0,0,1,8.32,98.221V84.943H.435c-.615,0-.6-1.424.2-1.424H12.186c-.108.531-1.237,1.123-1.307,1.6a.76.76,0,0,0,.8.8c.588-.089,2.234-2.228,2.85-2.651a.79.79,0,0,0,0-.825c-.614-.4-2.209-2.5-2.75-2.65a.74.74,0,0,0-.9.8c.067.427,1.085,1.068,1.3,1.5H8.32V72.886L25.073,59.325a12.47,12.47,0,0,1,1.915,1.406C32,64.723,36.918,68.848,41.9,72.886ZM24.069,73.476a9.433,9.433,0,1,0,8.9,14.594,9.47,9.47,0,0,0-8.9-14.594" transform="translate(0 -51.261)" fill="#fff"/>
    <path id="Path_812" data-name="Path 812" d="M52.1,22.866a.619.619,0,0,1-.423.132L31.12,6.411a.623.623,0,0,0-.722,0L10,22.948l-.575-.082c-.747-1.124-1.855-2.14-2.615-3.234-.259-.373-.419-.548-.052-.949L28.777.822a2.778,2.778,0,0,1,3.036-.6c7.792,6,15.311,12.372,23,18.509a.514.514,0,0,1,.066.663Z" transform="translate(-5.651 0)" fill="#fff"/>
    <path id="Path_813" data-name="Path 813" d="M76.927,32.211V27.174c0-.2.365-.419.566-.451a21.506,21.506,0,0,1,3.407.04c.646.2.424,1.616.3,2.14Z" transform="translate(-66.471 -23.049)" fill="#fff"/>
    <path id="Path_814" data-name="Path 814" d="M133.061,173.625a8,8,0,1,1-5.556,12.619,8.015,8.015,0,0,1,5.556-12.619m.612,1.424c-8.7.36-7.9,14.044,1.188,12.992,8-.926,7.213-13.339-1.188-12.992" transform="translate(-108.891 -149.985)" fill="#fff"/>
    <path id="Path_815" data-name="Path 815" d="M152.564,194.831c7.085-.25,7.088,10.909-.54,10.146-5.812-.581-5.721-9.925.54-10.146m-.011,1.01a.986.986,0,0,0-.477.542c-.192,1.006.389,2.624-.457,3.409-.422.392-2.337.888-1.525,1.825.631.728,1.613-.412,2.18-.56.535-.139.891.119,1.327-.4.718-.858-.019-1.082-.107-1.726-.1-.75.478-3.519-.94-3.088" transform="translate(-127.679 -168.345)" fill="#fff"/>
  </g>
</svg>
