<svg id="Group_161" data-name="Group 161" xmlns="http://www.w3.org/2000/svg" xmlns:xlink="http://www.w3.org/1999/xlink" width="126.065" height="126.065" viewBox="0 0 126.065 126.065">
  <defs>
    <clipPath id="clip-path">
      <rect id="Rectangle_81" data-name="Rectangle 81" width="126.065" height="126.065" fill="none"/>
    </clipPath>
  </defs>
  <g id="Group_161-2" data-name="Group 161" clip-path="url(#clip-path)">
    <path id="Path_278" data-name="Path 278" d="M0,63.032A63.032,63.032,0,1,0,63.033,0,63.033,63.033,0,0,0,0,63.032" transform="translate(0 0.042)" fill="#348f99"/>
    <g id="Group_163" data-name="Group 163" transform="translate(-0.198 2.194)">
      <path id="Path_279" data-name="Path 279" d="M92.294,215.506l-9.375,1.338c-.955-6.729-1.894-13.357-2.856-20.135,3.16-.451,6.2-.883,9.375-1.337.955,6.742,1.9,13.373,2.856,20.134" transform="translate(-54.866 -133.887)" fill="#fff"/>
      <path id="Path_280" data-name="Path 280" d="M185.3,206.561c-3.605,1.623-7.053,3.176-10.5,4.73-6.317,2.846-12.653,5.64-18.934,8.558a9.9,9.9,0,0,1-8.7.138c-5.705-2.5-11.5-4.806-17.282-7.135-1.236-.5-2.578-.736-3.854-1.145-.317-.1-.779-.386-.818-.638-.694-4.593-1.332-9.189-2.009-13.985a45.512,45.512,0,0,1,5-.707,93.638,93.638,0,0,1,11.734,0c1.986.19,3.9,1.492,5.754,2.476a8.926,8.926,0,0,1,2.588,2.215,4.089,4.089,0,0,0,3.644,1.528c2.65-.085,5.3-.036,7.956-.02,1.521.006,2.346.729,2.372,2.018.026,1.344-.834,2.153-2.391,2.156-5.96.013-11.917,0-17.874.007-.409,0-.818-.016-1.224.016a1.966,1.966,0,0,0-.059,3.926c1.138.075,2.283.026,3.428.026,5.221,0,10.446-.02,15.67.013a6.337,6.337,0,0,0,5.107-2.172,2.57,2.57,0,0,1,1.233-.677c4.37-1.158,8.744-2.323,13.134-3.4,2.3-.569,4.236.239,6.019,2.071" transform="translate(-84.437 -134.444)" fill="#fff"/>
      <g id="Group_162" data-name="Group 162" transform="translate(-0.921 -4.738)">
        <path id="Path_281" data-name="Path 281" d="M227.706,156.276c.4-.441.73-.811,1.065-1.18s.615-.89,1.036-1.074a4.107,4.107,0,0,1,1.527-.062q1.073-.006,2.146,0a1.14,1.14,0,0,1,1.252,1.24q0,6.665,0,13.329a1.138,1.138,0,0,1-1.2,1.225c-.105,0-.211,0-.316,0H203.884a.608.608,0,0,1-.472-1.05c.406-.453.809-.909,1.233-1.388l-.853-.984a1.159,1.159,0,0,1,.012-1.725c.271-.307.544-.613.842-.949-.287-.329-.57-.652-.851-.976a1.162,1.162,0,0,1,0-1.726c.271-.307.546-.611.846-.947l-.842-.977a1.165,1.165,0,0,1,.017-1.751l.829-.929q-.542-.615-1.082-1.229a2.17,2.17,0,0,1-.264-.327.552.552,0,0,1,.4-.827,1.787,1.787,0,0,1,.281-.01h17.646c-.279.743-.545,1.463-.824,2.177-.025.064-.13.114-.207.135a1.128,1.128,0,0,1-.28.006h-12.2c-.692,0-.83.135-.83.812q0,4.765,0,9.531c0,.688.151.836.855.836h23.317c.678,0,.837-.155.837-.822q0-4.783,0-9.566c0-.636-.155-.79-.784-.791h-3.808Z" transform="translate(-139.262 -104.93)" fill="#fff"/>
        <path id="Path_282" data-name="Path 282" d="M218.81,173.237V164.36h11.9c-.083.237-.16.465-.243.691a1.411,1.411,0,0,0,1.952,1.787c1.165-.546,2.334-1.086,3.49-1.65a3.481,3.481,0,0,0,.866-.588.927.927,0,0,1,.711-.275c1.334.012,2.669.005,4.033.005v8.908Zm14-1.658q2.831,0,5.662,0c.441,0,.708-.21.718-.551.011-.358-.256-.569-.725-.573H227.243a2.152,2.152,0,0,0-.351.012.524.524,0,0,0-.466.5.5.5,0,0,0,.342.554,1.339,1.339,0,0,0,.447.058q2.8.006,5.591,0m-2.183-3.38h-2.107c-.515,0-1.03-.007-1.545.007a.546.546,0,0,0-.552.526.575.575,0,0,0,.5.581,2.31,2.31,0,0,0,.351.011h5.935c.351,0,.7.011,1.054,0a.557.557,0,0,0,.582-.7.566.566,0,0,0-.638-.427c-1.194,0-2.388,0-3.582,0" transform="translate(-149.645 -111.857)" fill="#fff"/>
        <path id="Path_283" data-name="Path 283" d="M272.388,141.639q-1.673,1.853-3.343,3.7a1.3,1.3,0,0,0-.115.208A4.739,4.739,0,0,0,266,142.973c.071-.093.126-.175.192-.247,1-1.1,2-2.2,2.985-3.317a.373.373,0,0,1,.5-.11,4.856,4.856,0,0,1,2.7,2.34" transform="translate(-181.063 -95.162)" fill="#fff"/>
        <path id="Path_284" data-name="Path 284" d="M271.108,132.026c.18-.19.342-.357.5-.527a1.426,1.426,0,0,1,1.574-.382,2.172,2.172,0,0,1,1.608,2.293,1.214,1.214,0,0,1-.207.513c-.366.453-.761.883-1.165,1.345a5.142,5.142,0,0,0-2.3-2.054,3.77,3.77,0,0,1-1.385-.913c-.191-.211-.35-.122-.5.042-.388.423-.767.853-1.159,1.271-.272.29-.561.565-.841.848a.468.468,0,0,1-.691.025.516.516,0,0,1-.133-.694,1.234,1.234,0,0,1,.195-.246c.608-.665,1.216-1.332,1.829-1.992a1.362,1.362,0,0,1,2.076-.085c.2.179.391.362.6.558" transform="translate(-181.278 -89.69)" fill="#fff"/>
        <path id="Path_285" data-name="Path 285" d="M262.037,155.5a1.041,1.041,0,0,1-.158.217,7.908,7.908,0,0,1-1.235.965c-1.067.558-2.172,1.045-3.269,1.544-.126.057-.36.074-.433,0a.518.518,0,0,1-.026-.439c.4-1.124.789-2.254,1.247-3.355A7.554,7.554,0,0,1,259,153.1a.356.356,0,0,1,.315-.111,4.487,4.487,0,0,1,2.659,2.357c.02.042.037.085.063.146" transform="translate(-174.991 -104.308)" fill="#fff"/>
        <path id="Path_286" data-name="Path 286" d="M290.437,128.384a3.579,3.579,0,0,0-1.908-1.762c.38-.432.679-.96,1.367-.82a1.549,1.549,0,0,1,1.234,1.113c.215.674-.3,1.016-.694,1.468" transform="translate(-196.061 -86.196)" fill="#fff"/>
      </g>
    </g>
  </g>
</svg>
