<svg xmlns="http://www.w3.org/2000/svg" xmlns:xlink="http://www.w3.org/1999/xlink" width="124" height="124" viewBox="0 0 124 124">
  <defs>
    <clipPath id="clip-path">
      <rect id="Rectangle_82" data-name="Rectangle 82" width="124" height="124" transform="translate(-0.201 -0.194)" fill="none"/>
    </clipPath>
  </defs>
  <g id="Group_164" data-name="Group 164" transform="translate(0.201 0.194)">
    <g id="Group_164-2" data-name="Group 164" clip-path="url(#clip-path)">
      <path id="Path_287" data-name="Path 287" d="M0,61.8A61.8,61.8,0,1,0,61.8,0,61.8,61.8,0,0,0,0,61.8" transform="translate(0 0.001)" fill="#348f99"/>
      <path id="Path_288" data-name="Path 288" d="M173.405,137.745V161.19c0,.218,0,.437,0,.655a2.12,2.12,0,0,1-3.41,1.806q-3.09-2.029-6.194-4.038-5.759-3.747-11.512-7.5a.846.846,0,0,0-1.093.009q-8.762,5.731-17.554,11.415a3.245,3.245,0,0,1-1.5.538,2.013,2.013,0,0,1-2.039-1.97c-.007-.131,0-.262,0-.393q0-23.642,0-47.283a8.468,8.468,0,0,1,6.927-8.486,9.625,9.625,0,0,1,1.887-.16q12.836-.015,25.672-.006a8.524,8.524,0,0,1,8.82,8.789c.017,7.728,0,15.455,0,23.183m-21.841-18.228a14.345,14.345,0,0,0-1.216-1.379,12.084,12.084,0,0,0-1.919-1.456,8.183,8.183,0,0,0-11.2,2.79,8.472,8.472,0,0,0,.758,9.931c.743.886,1.477,1.78,2.215,2.67q4.868,5.87,9.738,11.74a2.2,2.2,0,0,0,3.679.049c.086-.1.172-.2.255-.3q6.274-7.512,12.546-15.024a5.905,5.905,0,0,0,1.4-3.392,8.593,8.593,0,0,0-4.606-8.589c-3.162-1.832-6.251-1.375-9.145.668a27.449,27.449,0,0,0-2.508,2.291" transform="translate(-89.952 -73.136)" fill="#fff"/>
      <path id="Path_289" data-name="Path 289" d="M189.468,170.657l-4.84-5.854c.135-.2.26-.4.395-.587,1.831-2.578,3.62-5.188,5.514-7.719a42.759,42.759,0,0,1,3.378-3.9,4.01,4.01,0,0,1,4.46-.964,4.547,4.547,0,0,1,2.826,4.255,2.558,2.558,0,0,1-.485,1.382c-3.667,4.441-7.369,8.852-11.064,13.27a1.107,1.107,0,0,1-.184.118" transform="translate(-127.662 -104.63)" fill="#fff"/>
      <path id="Path_290" data-name="Path 290" d="M171.866,154.585l-4.954,6.948c-.252-.3-.47-.561-.687-.822l-2.088-2.512a4.091,4.091,0,0,1,.475-5.7,4.187,4.187,0,0,1,5.285.176c.661.6,1.282,1.24,1.969,1.91" transform="translate(-112.841 -104.854)" fill="#fff"/>
    </g>
  </g>
</svg>
