<svg id="Group_155" data-name="Group 155" xmlns="http://www.w3.org/2000/svg" xmlns:xlink="http://www.w3.org/1999/xlink" width="125.798" height="125.984" viewBox="0 0 125.798 125.984">
  <defs>
    <clipPath id="clip-path">
      <rect id="Rectangle_78" data-name="Rectangle 78" width="125.798" height="125.984" fill="none"/>
    </clipPath>
  </defs>
  <g id="Group_154" data-name="Group 154" clip-path="url(#clip-path)">
    <path id="Path_271" data-name="Path 271" d="M124.852,52.308C121.3,33.156,111.168,18.444,94.4,8.628a62.249,62.249,0,0,0-71.466,5.8C9.989,25.107,2.246,38.887.439,55.618-1.978,78.025,5.6,96.721,22.655,111.38a60.264,60.264,0,0,0,35.207,14.394,9.148,9.148,0,0,1,1.067.21H66.8c2.341-.322,4.706-.542,7.028-.975,17.628-3.291,31.474-12.43,41.5-27.257a60.666,60.666,0,0,0,10.269-29.828,7.294,7.294,0,0,1,.2-.949V59.106c-.309-2.266-.529-4.552-.946-6.8M53.791,30.723a2.378,2.378,0,0,1,2.227-2.1,10.3,10.3,0,0,1,1.1-.023H99.366c2.627,0,3.435.808,3.445,3.445.007,1.543,0,3.087,0,4.726H53.764c0-2.059-.062-4.056.026-6.046m-28,63.1c-.959-6.755-1.9-13.408-2.867-20.213,3.172-.453,6.223-.887,9.412-1.343.959,6.768,1.9,13.425,2.867,20.213l-9.412,1.343M88.345,87.69C82,90.547,75.642,93.351,69.337,96.28a9.936,9.936,0,0,1-8.729.138c-5.727-2.512-11.546-4.824-17.349-7.162-1.241-.5-2.588-.739-3.869-1.149-.319-.1-.782-.388-.821-.64-.7-4.611-1.337-9.225-2.016-14.039a45.674,45.674,0,0,1,5.021-.709,93.984,93.984,0,0,1,11.78,0c1.993.19,3.918,1.5,5.776,2.486a8.955,8.955,0,0,1,2.6,2.223,4.106,4.106,0,0,0,3.658,1.534c2.66-.085,5.323-.036,7.987-.02,1.527.007,2.355.732,2.381,2.026.026,1.35-.837,2.161-2.4,2.164-5.983.013-11.963,0-17.944.007-.41,0-.821-.016-1.228.016a1.973,1.973,0,0,0-.059,3.941c1.143.076,2.292.026,3.442.026,5.241,0,10.486-.02,15.73.013a6.362,6.362,0,0,0,5.126-2.181,2.58,2.58,0,0,1,1.238-.68c4.387-1.163,8.778-2.332,13.185-3.415,2.312-.571,4.253.24,6.042,2.079-3.619,1.629-7.08,3.189-10.542,4.749M102.8,60.006c-.036,1.944-.956,2.883-2.887,2.883q-21.689.025-43.375,0a2.477,2.477,0,0,1-2.8-2.7c-.023-6.226-.01-12.453-.007-18.679a4.941,4.941,0,0,1,.066-.548H102.81v12.9c0,2.046.03,4.1-.01,6.144" transform="translate(0 0)" fill="#348f99"/>
    <path id="Path_272" data-name="Path 272" d="M82.077,240.276l-9.412,1.343c-.959-6.755-1.9-13.408-2.867-20.213,3.172-.453,6.223-.887,9.412-1.343.959,6.768,1.9,13.425,2.867,20.213" transform="translate(-46.877 -147.795)" fill="#fff"/>
    <path id="Path_273" data-name="Path 273" d="M173.641,231.262c-3.619,1.629-7.08,3.189-10.542,4.749-6.341,2.857-12.7,5.662-19.008,8.591a9.936,9.936,0,0,1-8.729.138c-5.727-2.512-11.546-4.824-17.349-7.162-1.241-.5-2.588-.739-3.869-1.149-.319-.1-.782-.388-.821-.64-.7-4.611-1.337-9.225-2.016-14.039a45.665,45.665,0,0,1,5.021-.709,93.982,93.982,0,0,1,11.78,0c1.993.19,3.918,1.5,5.776,2.486a8.955,8.955,0,0,1,2.6,2.223,4.106,4.106,0,0,0,3.658,1.534c2.66-.085,5.323-.036,7.987-.02,1.527.007,2.355.732,2.381,2.026.026,1.35-.837,2.161-2.4,2.164-5.983.013-11.963,0-17.944.007-.411,0-.821-.016-1.228.016a1.973,1.973,0,0,0-.059,3.941c1.143.076,2.292.026,3.442.026,5.241,0,10.486-.02,15.73.013a6.362,6.362,0,0,0,5.126-2.181,2.58,2.58,0,0,1,1.238-.68c4.387-1.163,8.778-2.332,13.185-3.415,2.312-.571,4.253.24,6.042,2.079" transform="translate(-74.755 -148.321)" fill="#fff"/>
    <path id="Path_274" data-name="Path 274" d="M212.72,95.247H163.674c0-2.059-.062-4.056.026-6.046a2.378,2.378,0,0,1,2.227-2.1,10.3,10.3,0,0,1,1.1-.023h42.245c2.627,0,3.435.808,3.445,3.445.007,1.543,0,3.087,0,4.726" transform="translate(-109.91 -58.478)" fill="#fff"/>
    <path id="Path_275" data-name="Path 275" d="M212.683,137.626v-12.9H163.67a4.941,4.941,0,0,0-.066.548c0,6.226-.016,12.453.007,18.679a2.477,2.477,0,0,0,2.8,2.7q21.684.025,43.375,0c1.931,0,2.85-.939,2.887-2.883.039-2.049.01-4.1.01-6.144M183.167,140.2c-1.878.026-3.757.007-5.635.007-1.836,0-3.675.016-5.51-.007-1.458-.016-2.276-.759-2.273-1.99s.828-1.977,2.279-1.983q5.576-.02,11.149,0a2,2,0,1,1-.01,3.974" transform="translate(-109.873 -83.764)" fill="#fff"/>
    <path id="Path_276" data-name="Path 276" d="M197.986,161.664a2.006,2.006,0,0,1-2.24,2.043c-1.878.026-3.757.007-5.635.007-1.836,0-3.675.016-5.51-.007-1.458-.016-2.276-.759-2.273-1.99s.828-1.977,2.279-1.984q5.576-.02,11.149,0a2.014,2.014,0,0,1,2.23,1.931" transform="translate(-122.452 -107.271)" fill="#348f99"/>
  </g>
</svg>
