<svg xmlns="http://www.w3.org/2000/svg" width="22.516" height="18.157" viewBox="0 0 22.516 18.157">
  <path id="Path_50" data-name="Path 50" d="M5,9a1,1,0,0,1,1,1,6.97,6.97,0,0,1,4.33,1.5H12.5A4.489,4.489,0,0,1,15.858,13H19a5,5,0,0,1,4.516,2.851A13.155,13.155,0,0,1,13,21a14.454,14.454,0,0,1-7.061-1.658A1,1,0,0,1,5,20H2a1,1,0,0,1-1-1V10A1,1,0,0,1,2,9Zm1,3v5.021l.045.033A11.89,11.89,0,0,0,13,19a11.234,11.234,0,0,0,7.835-3.13l.133-.134-.119-.1a2.994,2.994,0,0,0-1.644-.63L19,15H16.893A4.516,4.516,0,0,1,17,16v1H8V15h6.79l-.034-.079a2.5,2.5,0,0,0-2.091-1.415L12.5,13.5H9.575A4.985,4.985,0,0,0,6.006,12ZM4,11H3v7H4Zm9.646-7.425L14,3.932l.354-.354a2.5,2.5,0,0,1,3.536,3.536L14,11,10.116,7.114a2.5,2.5,0,0,1,3.536-3.536ZM11.53,4.992a.5.5,0,0,0-.059.637l.057.069L14,8.174,16.48,5.7a.5.5,0,0,0,.058-.638l-.058-.069a.5.5,0,0,0-.638-.058l-.069.058L14,6.761l-1.767-1.77-.068-.057A.5.5,0,0,0,11.53,4.992Z" transform="translate(-1.005 -2.846)" fill="#333"/>
</svg>
