<svg id="Layer_1" data-name="Layer 1" xmlns="http://www.w3.org/2000/svg" width="346.673" height="80.977" viewBox="0 0 346.673 80.977">
  <g id="Group_5" data-name="Group 5">
    <g id="Group_1" data-name="Group 1" transform="translate(134.786 0.348)">
      <path id="Path_1" data-name="Path 1" d="M309.54,43.865,324.6,59.1l1.672-1.658-6.456-6.537,14.161-14.161,14.166,14.166-6.461,6.537,1.677,1.653,15.056-15.239,15.432,15.249,1.658-1.672-6.287-6.212V46.648h-2.844v1.775l-7.978-7.888-8.6,8.7-5.957-5.957V38.84H341.1V40.55l-7.13-7.13-7.13,7.13V38.836h-2.727v4.441l-5.957,5.962-8.6-8.7-7.982,7.883V46.648h-2.844v4.582l-6.282,6.207,1.658,1.677Z" transform="translate(-289.511 -18.03)" fill="#6e6e6f"/>
      <path id="Path_2" data-name="Path 2" d="M327.478,64.344,320.5,57.28l-7.149,7.059.692.7,6.447-6.367,6.287,6.362Z" transform="translate(-300.569 -30.653)" fill="#6e6e6f"/>
      <path id="Path_3" data-name="Path 3" d="M334.8,5.416v.009s.042,0,.122,0H335c2.5-.08,28.6-.184,40.6,27.526,0,0-8.929-31.548-40.6-32.2V.74h-.2c-31.67.65-40.6,32.2-40.6,32.2,11.995-27.71,38.1-27.606,40.6-27.531Z" transform="translate(-290.437 -0.74)" fill="#6e6e6f"/>
      <rect id="Rectangle_1" data-name="Rectangle 1" width="3.753" height="4.083" transform="translate(15.856 40.566)" fill="#f9ce00"/>
      <rect id="Rectangle_2" data-name="Rectangle 2" width="3.753" height="4.083" transform="translate(20.401 40.566)" fill="#f9ce00"/>
      <path id="Path_4" data-name="Path 4" d="M319.88,100.036q1.8-.516,3.753-.961V96.82H319.88Z" transform="translate(-304.024 -51.573)" fill="#f9ce00"/>
      <path id="Path_5" data-name="Path 5" d="M333.293,96.82H329.54V98.9c1.215-.268,2.463-.513,3.753-.735Z" transform="translate(-309.135 -51.573)" fill="#f9ce00"/>
      <path id="Path_6" data-name="Path 6" d="M432.023,64.339l-7.144-7.059L417.9,64.344l.7.692,6.292-6.367,6.447,6.372Z" transform="translate(-355.883 -30.653)" fill="#6e6e6f"/>
      <path id="Path_7" data-name="Path 7" d="M330.77,98.14h0c-24.554,0-41.96,6.494-44.56,13.638,12.277-9.673,41.711-9.875,44.367-9.875h0s31.7-.259,44.56,9.875C372.546,104.653,355.221,98.173,330.77,98.14Z" transform="translate(-286.21 -52.271)" fill="#6e6e6f"/>
      <path id="Path_8" data-name="Path 8" d="M379.73,50.244l-6.913-6.909-.363-.316-7.224,7.224.725.721,6.522-6.522L379,50.969Z" transform="translate(-328.017 -23.109)" fill="#6e6e6f"/>
      <path id="Path_9" data-name="Path 9" d="M380.188,82.523V71.48H373.11V82.519h3.442v0Z" transform="translate(-332.186 -38.166)" fill="#3c787e"/>
      <rect id="Rectangle_3" data-name="Rectangle 3" width="3.753" height="4.083" transform="translate(69.317 40.571)" fill="#f9ce00"/>
      <rect id="Rectangle_4" data-name="Rectangle 4" width="3.753" height="4.083" transform="translate(64.767 40.571)" fill="#f9ce00"/>
      <path id="Path_10" data-name="Path 10" d="M437.153,96.82H433.4v2.256q1.95.445,3.753.961Z" transform="translate(-364.083 -51.573)" fill="#f9ce00"/>
      <path id="Path_11" data-name="Path 11" d="M423.74,98.162c1.29.221,2.538.466,3.753.735V96.82H423.74Z" transform="translate(-358.973 -51.573)" fill="#f9ce00"/>
    </g>
    <g id="Group_2" data-name="Group 2" transform="translate(0 66.434)">
      <path id="Path_12" data-name="Path 12" d="M9.329,155.838v-5.548H2.585v5.548H0V142.12H2.585V147.9H9.324V142.12h2.567v13.718H9.324Z" transform="translate(0 -141.626)" fill="#6e6e6f"/>
      <path id="Path_13" data-name="Path 13" d="M39.14,155.314a4.822,4.822,0,0,1-5.034,5.034,5.034,5.034,0,0,1-.019-10.069,4.887,4.887,0,0,1,5.058,5.034Zm-7.662,0a2.636,2.636,0,1,0,5.256,0,2.718,2.718,0,0,0-2.628-2.863,2.658,2.658,0,0,0-2.628,2.863Z" transform="translate(-15.391 -145.943)" fill="#6e6e6f"/>
      <path id="Path_14" data-name="Path 14" d="M60.348,160.158v-5.176c0-1.271-.669-2.43-1.978-2.43a2.2,2.2,0,0,0-2.058,2.43v5.176H53.92v-9.682h2.213l.174,1.177a2.8,2.8,0,0,1,2.548-1.333,2.9,2.9,0,0,1,2.863,1.8,3.5,3.5,0,0,1,3.235-1.761c2.746,0,4.1,1.686,4.1,4.587v5.213H66.659v-5.213c0-1.271-.527-2.35-1.823-2.35a2.2,2.2,0,0,0-2.1,2.392v5.175H60.348Z" transform="translate(-28.527 -145.964)" fill="#6e6e6f"/>
      <path id="Path_15" data-name="Path 15" d="M92.768,156.046c.155,1.2,1.2,2.058,2.882,2.058a4,4,0,0,0,2.585-.9l1.531,1.507a5.924,5.924,0,0,1-4.154,1.568c-3.329,0-5.312-2.058-5.312-5.152a4.755,4.755,0,0,1,5.133-5.058c3.136,0,5.251,2,4.879,5.976Zm5.251-1.978a2.215,2.215,0,0,0-2.51-1.884,2.6,2.6,0,0,0-2.7,1.884Z" transform="translate(-47.775 -145.832)" fill="#6e6e6f"/>
      <path id="Path_16" data-name="Path 16" d="M117.839,142.12v13.7H115.47v-13.7Z" transform="translate(-61.091 -141.626)" fill="#6e6e6f"/>
      <path id="Path_17" data-name="Path 17" d="M126.508,156.046c.155,1.2,1.2,2.058,2.882,2.058a4,4,0,0,0,2.585-.9l1.531,1.507a5.924,5.924,0,0,1-4.154,1.568c-3.329,0-5.312-2.058-5.312-5.152a4.755,4.755,0,0,1,5.133-5.058c3.136,0,5.251,2,4.879,5.976Zm5.251-1.978a2.215,2.215,0,0,0-2.51-1.884,2.6,2.6,0,0,0-2.7,1.884Z" transform="translate(-65.626 -145.832)" fill="#6e6e6f"/>
      <path id="Path_18" data-name="Path 18" d="M154.923,152.944a3.267,3.267,0,0,0-2.392-.862c-1.135,0-1.766.353-1.766.961s.57.98,1.8,1.06c1.823.118,4.135.527,4.135,3.094,0,1.7-1.389,3.174-4.154,3.174a5.655,5.655,0,0,1-4.469-1.724l1.177-1.7a5.312,5.312,0,0,0,3.33,1.352c.9.019,1.742-.452,1.742-1.158,0-.669-.551-.942-1.921-1.017-1.823-.137-4-.805-4-3s2.312-3.019,4.074-3.019a5.19,5.19,0,0,1,3.763,1.272l-1.333,1.568Z" transform="translate(-78.344 -145.847)" fill="#6e6e6f"/>
      <path id="Path_19" data-name="Path 19" d="M175.358,152.944a3.267,3.267,0,0,0-2.392-.862c-1.135,0-1.761.353-1.761.961s.57.98,1.8,1.06c1.823.118,4.135.527,4.135,3.094,0,1.7-1.389,3.174-4.154,3.174a5.656,5.656,0,0,1-4.469-1.724l1.177-1.7a5.311,5.311,0,0,0,3.329,1.352c.9.019,1.742-.452,1.742-1.158,0-.669-.551-.942-1.921-1.017-1.823-.137-4-.805-4-3s2.312-3.019,4.074-3.019a5.19,5.19,0,0,1,3.763,1.272l-1.333,1.568Z" transform="translate(-89.158 -145.847)" fill="#6e6e6f"/>
      <path id="Path_20" data-name="Path 20" d="M198.89,155.8V142.08h2.567V155.8Z" transform="translate(-105.226 -141.604)" fill="#6e6e6f"/>
      <path id="Path_21" data-name="Path 21" d="M216.172,160.179v-5.058a2.3,2.3,0,0,0-2.331-2.585,2.506,2.506,0,0,0-2.468,2.7v4.94H209V150.5h2.138l.155,1.314a4.354,4.354,0,0,1,3.174-1.45c2.275,0,4.1,1.7,4.1,4.742v5.077Z" transform="translate(-110.575 -145.985)" fill="#6e6e6f"/>
      <path id="Path_22" data-name="Path 22" d="M235.257,144.91v2.746h2.665v2.058h-2.684v4.173a1.2,1.2,0,0,0,1.253,1.37,2.773,2.773,0,0,0,1.159-.292l.669,2.039a5.347,5.347,0,0,1-1.978.41c-2.1.08-3.466-1.116-3.466-3.527v-4.173h-1.8v-2.058h1.8v-2.487l2.392-.254Z" transform="translate(-122.252 -143.102)" fill="#6e6e6f"/>
      <path id="Path_23" data-name="Path 23" d="M250.968,156.046c.155,1.2,1.2,2.058,2.882,2.058a4,4,0,0,0,2.585-.9l1.531,1.507a5.924,5.924,0,0,1-4.154,1.568c-3.329,0-5.312-2.058-5.312-5.152a4.755,4.755,0,0,1,5.133-5.058c3.136,0,5.251,2,4.879,5.976h-7.544Zm5.251-1.978a2.215,2.215,0,0,0-2.51-1.884,2.6,2.6,0,0,0-2.7,1.884Z" transform="translate(-131.473 -145.832)" fill="#6e6e6f"/>
      <path id="Path_24" data-name="Path 24" d="M275.873,150.4l.174,1.116a2.842,2.842,0,0,1,2.722-1.37,3.681,3.681,0,0,1,2.487.923l-1.078,2.077a2.4,2.4,0,0,0-1.724-.626,2.229,2.229,0,0,0-2.411,2.449v5.1H273.65v-9.659h2.213Z" transform="translate(-144.779 -145.874)" fill="#6e6e6f"/>
      <path id="Path_25" data-name="Path 25" d="M302.106,150.645l-4.116,9.72H295.4l-4.135-9.72h2.6l1.333,3.193,1.488,4.074,1.469-4.036,1.333-3.235h2.6Z" transform="translate(-154.101 -146.133)" fill="#6e6e6f"/>
      <path id="Path_26" data-name="Path 26" d="M318.288,156.046c.155,1.2,1.2,2.058,2.882,2.058a4,4,0,0,0,2.585-.9l1.531,1.507a5.924,5.924,0,0,1-4.154,1.568c-3.329,0-5.312-2.058-5.312-5.152a4.755,4.755,0,0,1,5.133-5.058c3.136,0,5.251,2,4.879,5.976Zm5.251-1.978a2.215,2.215,0,0,0-2.51-1.884,2.6,2.6,0,0,0-2.7,1.884Z" transform="translate(-167.09 -145.832)" fill="#6e6e6f"/>
      <path id="Path_27" data-name="Path 27" d="M348.042,160.179v-5.058a2.3,2.3,0,0,0-2.331-2.585,2.506,2.506,0,0,0-2.468,2.7v4.94H340.87V150.5h2.138l.155,1.314a4.354,4.354,0,0,1,3.174-1.45c2.275,0,4.1,1.7,4.1,4.742v5.077Z" transform="translate(-180.343 -145.985)" fill="#6e6e6f"/>
      <path id="Path_28" data-name="Path 28" d="M367.111,144.91v2.746h2.665v2.058h-2.684v4.173a1.2,1.2,0,0,0,1.253,1.37,2.773,2.773,0,0,0,1.159-.292l.664,2.039a5.347,5.347,0,0,1-1.978.41c-2.1.08-3.466-1.116-3.466-3.527v-4.173h-1.8v-2.058h1.8v-2.487l2.392-.254Z" transform="translate(-192.009 -143.102)" fill="#6e6e6f"/>
      <path id="Path_29" data-name="Path 29" d="M383.631,143.343a1.41,1.41,0,0,1-2.821,0A1.41,1.41,0,0,1,383.631,143.343Zm-2.6,2.684v9.7h2.392v-9.7Z" transform="translate(-201.474 -141.534)" fill="#6e6e6f"/>
      <path id="Path_30" data-name="Path 30" d="M400.48,155.314a5.025,5.025,0,1,1-5.053-5.034,4.887,4.887,0,0,1,5.058,5.034Zm-7.662,0a2.636,2.636,0,1,0,5.256,0,2.718,2.718,0,0,0-2.628-2.863A2.658,2.658,0,0,0,392.818,155.314Z" transform="translate(-206.564 -145.943)" fill="#6e6e6f"/>
      <path id="Path_31" data-name="Path 31" d="M422.312,160.179v-5.058a2.3,2.3,0,0,0-2.331-2.585,2.506,2.506,0,0,0-2.468,2.7v4.94H415.14V150.5h2.138l.155,1.314a4.354,4.354,0,0,1,3.174-1.45c2.275,0,4.1,1.7,4.1,4.742v5.077Z" transform="translate(-219.637 -145.985)" fill="#6e6e6f"/>
      <path id="Path_32" data-name="Path 32" d="M456.179,144.856a3.936,3.936,0,0,0-3.254-1.531c-1.921,0-2.84.805-2.84,1.822,0,1.2,1.413,1.531,3.056,1.724,2.863.353,5.524,1.1,5.524,4.37,0,3.056-2.7,4.37-5.76,4.37-2.8,0-4.959-.862-5.976-3.372l2.157-1.116a3.914,3.914,0,0,0,3.862,2.176c1.667,0,3.155-.57,3.155-2.058,0-1.3-1.352-1.822-3.174-2.02-2.8-.334-5.388-1.078-5.388-4.154,0-2.821,2.783-3.979,5.312-4,2.138,0,4.351.608,5.388,2.722l-2.058,1.06Z" transform="translate(-236.456 -141.07)" fill="#6e6e6f"/>
      <path id="Path_33" data-name="Path 33" d="M478.608,156.046c.155,1.2,1.2,2.058,2.882,2.058a4,4,0,0,0,2.585-.9l1.53,1.507a5.924,5.924,0,0,1-4.154,1.568c-3.329,0-5.312-2.058-5.312-5.152a4.755,4.755,0,0,1,5.133-5.058c3.136,0,5.251,2,4.879,5.976Zm5.251-1.978a2.215,2.215,0,0,0-2.51-1.884,2.6,2.6,0,0,0-2.7,1.884Z" transform="translate(-251.91 -145.832)" fill="#6e6e6f"/>
      <path id="Path_34" data-name="Path 34" d="M503.513,150.4l.174,1.116a2.842,2.842,0,0,1,2.722-1.37,3.681,3.681,0,0,1,2.486.923l-1.078,2.077a2.4,2.4,0,0,0-1.724-.626,2.229,2.229,0,0,0-2.411,2.449v5.1H501.29v-9.659H503.5Z" transform="translate(-265.216 -145.874)" fill="#6e6e6f"/>
      <path id="Path_35" data-name="Path 35" d="M529.746,150.645l-4.116,9.72h-2.585l-4.135-9.72h2.6l1.333,3.193,1.488,4.074,1.469-4.036,1.333-3.235h2.6Z" transform="translate(-274.538 -146.133)" fill="#6e6e6f"/>
      <path id="Path_36" data-name="Path 36" d="M546.741,143.343a1.411,1.411,0,0,1-2.821,0A1.411,1.411,0,0,1,546.741,143.343Zm-2.6,2.684v9.7h2.392v-9.7Z" transform="translate(-287.77 -141.534)" fill="#6e6e6f"/>
      <path id="Path_37" data-name="Path 37" d="M561.678,158.808a4.974,4.974,0,0,1-3.725,1.531,5.114,5.114,0,1,1,0-10.229,4.588,4.588,0,0,1,3.49,1.432l-1.507,1.587a2.936,2.936,0,0,0-1.94-.763,2.72,2.72,0,0,0-2.783,2.863,2.631,2.631,0,0,0,2.745,2.821,2.894,2.894,0,0,0,2.114-.805l1.606,1.568Z" transform="translate(-292.479 -145.853)" fill="#6e6e6f"/>
      <path id="Path_38" data-name="Path 38" d="M576.268,156.046c.155,1.2,1.2,2.058,2.882,2.058a4,4,0,0,0,2.585-.9l1.531,1.507a5.924,5.924,0,0,1-4.154,1.568c-3.33,0-5.312-2.058-5.312-5.152a4.755,4.755,0,0,1,5.133-5.058c3.136,0,5.251,2,4.879,5.976h-7.544Zm5.251-1.978a2.214,2.214,0,0,0-2.51-1.884,2.6,2.6,0,0,0-2.7,1.884Z" transform="translate(-303.579 -145.832)" fill="#6e6e6f"/>
      <path id="Path_39" data-name="Path 39" d="M604.683,152.944a3.267,3.267,0,0,0-2.392-.862c-1.135,0-1.766.353-1.766.961s.57.98,1.8,1.06c1.823.118,4.135.527,4.135,3.094,0,1.7-1.389,3.174-4.154,3.174a5.656,5.656,0,0,1-4.469-1.724l1.177-1.7a5.312,5.312,0,0,0,3.329,1.352c.9.019,1.743-.452,1.743-1.158,0-.669-.551-.942-1.921-1.017-1.823-.137-4-.805-4-3s2.312-3.019,4.074-3.019a5.19,5.19,0,0,1,3.763,1.272l-1.333,1.568Z" transform="translate(-316.298 -145.847)" fill="#6e6e6f"/>
      <path id="Path_40" data-name="Path 40" d="M636.91,155.314a5.025,5.025,0,1,1-5.053-5.034,4.887,4.887,0,0,1,5.058,5.034Zm-7.662,0a2.636,2.636,0,1,0,5.256,0,2.718,2.718,0,0,0-2.628-2.863A2.658,2.658,0,0,0,629.248,155.314Z" transform="translate(-331.651 -145.943)" fill="#6e6e6f"/>
      <path id="Path_41" data-name="Path 41" d="M651.324,155.539v-7.427h-1.8v-2.1h1.8v-.645a3.5,3.5,0,0,1,3.683-3.782,4.676,4.676,0,0,1,2.51.782l-.881,1.785a2.65,2.65,0,0,0-1.469-.509c-.824,0-1.451.551-1.451,1.724v.645h2.84v2.1h-2.84v7.427Z" transform="translate(-343.64 -141.345)" fill="#6e6e6f"/>
      <path id="Path_42" data-name="Path 42" d="M690.04,148.71C690,152.256,687.827,155.8,683,155.8s-7.054-3.471-7.054-7.073S678.262,141.5,683,141.5,690.078,145.126,690.04,148.71Zm-11.543.057c.057,2.256,1.276,4.662,4.507,4.662s4.45-2.43,4.488-4.681c.038-2.312-1.253-4.9-4.488-4.9S678.437,146.454,678.5,148.766Z" transform="translate(-357.623 -141.298)" fill="#6e6e6f"/>
      <path id="Path_43" data-name="Path 43" d="M721.555,153.763a7.246,7.246,0,0,1-5.213,2.039c-5.1,0-7.252-3.508-7.271-7.073a6.9,6.9,0,0,1,7.271-7.229,7.078,7.078,0,0,1,5.034,2.1l-1.724,1.667a4.712,4.712,0,0,0-3.311-1.3,4.5,4.5,0,0,0-4.724,4.761,4.4,4.4,0,0,0,4.724,4.643,5.048,5.048,0,0,0,3.447-1.389l1.766,1.785Z" transform="translate(-375.146 -141.298)" fill="#6e6e6f"/>
    </g>
    <g id="Group_3" data-name="Group 3" transform="translate(231.063 0.965)">
      <path id="Path_44" data-name="Path 44" d="M548.655,31.738c-.16,14.6-9.117,29.2-28.962,29.2S490.65,46.661,490.65,31.818,500.168,2.05,519.692,2.05,548.815,16.974,548.655,31.738Zm-47.513.24c.24,9.277,5.242,19.2,18.555,19.2s18.31-10,18.475-19.28c.16-9.518-5.161-20.165-18.475-20.165S500.9,22.46,501.142,31.982Z" transform="translate(-490.65 -2.05)" fill="#3c787e"/>
      <path id="Path_45" data-name="Path 45" d="M678.4,52.553c-5.807,5.727-13.309,8.387-21.456,8.387-20.975,0-29.848-14.439-29.928-29.122-.08-14.764,9.517-29.768,29.928-29.768a29.134,29.134,0,0,1,20.73,8.632l-7.1,6.857a19.4,19.4,0,0,0-13.634-5.326c-13.634,0-19.52,10.163-19.44,19.6.08,9.357,5.487,19.12,19.44,19.12a20.79,20.79,0,0,0,14.2-5.727l7.262,7.342Z" transform="translate(-562.798 -2.05)" fill="#3c787e"/>
    </g>
    <g id="Group_4" data-name="Group 4" transform="translate(0.584)">
      <path id="Path_46" data-name="Path 46" d="M39.64,60.75V37.919H11.888V60.75H1.24V4.28H11.888v23.8H39.64V4.28H50.208V60.75Z" transform="translate(-1.24 -2.264)" fill="#3c787e"/>
      <path id="Path_47" data-name="Path 47" d="M126.63,60.58V4.11H137.2V60.58H126.63Z" transform="translate(-67.58 -2.174)" fill="#3c787e"/>
      <path id="Path_48" data-name="Path 48" d="M204.96,15.569c-1.936-3.226-7.262-6.292-13.393-6.292-7.907,0-11.7,3.306-11.7,7.5,0,4.921,5.807,6.292,12.583,7.1,11.778,1.45,22.751,4.516,22.751,17.99,0,12.583-11.133,17.99-23.716,17.99-11.538,0-20.41-3.551-24.606-13.874l8.872-4.6c2.5,6.212,9.037,8.952,15.894,8.952S204.635,48,204.635,41.866c0-5.326-5.566-7.5-13.068-8.307-11.538-1.37-22.186-4.436-22.186-17.1C169.385,4.841,180.839.08,191.246,0c8.792,0,17.91,2.5,22.186,11.213l-8.472,4.356Z" transform="translate(-88.875)" fill="#3c787e"/>
    </g>
  </g>
</svg>
