<svg xmlns="http://www.w3.org/2000/svg" xmlns:xlink="http://www.w3.org/1999/xlink" width="519.405" height="251" viewBox="0 0 519.405 251">
  <defs>
    <clipPath id="clip-path">
      <rect id="Rectangle_76" data-name="Rectangle 76" width="519" height="251" transform="translate(0.405 -0.133)" fill="#fdd22e"/>
    </clipPath>
  </defs>
  <g id="Group_149" data-name="Group 149" transform="translate(-140 -2245.364)">
    <text id="_helpstartshere" data-name="#helpstartshere" transform="translate(140 2299.458)" fill="#fff" font-size="36" font-family="Inter" font-weight="500"><tspan x="0" y="0">#HELPSTARTSHERE</tspan></text>
    <g id="Group_148" data-name="Group 148" transform="translate(140 2245.497)">
      <g id="Group_147" data-name="Group 147" clip-path="url(#clip-path)">
        <path id="Path_261" data-name="Path 261" d="M575.523,271.65q0,10.8-3.953,18.562a28.916,28.916,0,0,1-10.82,11.924,31.333,31.333,0,0,1-31.228,0A28.9,28.9,0,0,1,518.7,290.2q-3.953-7.775-3.953-18.546,0-10.8,3.953-18.562a28.918,28.918,0,0,1,10.821-11.924,31.333,31.333,0,0,1,31.228,0,28.916,28.916,0,0,1,10.82,11.924q3.954,7.758,3.953,18.562m-10.08,0a32.562,32.562,0,0,0-2.652-13.885,19.747,19.747,0,0,0-7.247-8.564,20.013,20.013,0,0,0-20.8,0,19.792,19.792,0,0,0-7.231,8.564,37.675,37.675,0,0,0,0,27.77,19.788,19.788,0,0,0,7.231,8.564,20.013,20.013,0,0,0,20.8,0,19.743,19.743,0,0,0,7.247-8.564,32.56,32.56,0,0,0,2.652-13.885" transform="translate(-120.682 -55.564)" fill="#fdd22e"/>
        <path id="Path_262" data-name="Path 262" d="M661.176,259.858H650.9a15.7,15.7,0,0,0-2.207-5.8,16.242,16.242,0,0,0-3.952-4.25,17.082,17.082,0,0,0-5.223-2.635,20.591,20.591,0,0,0-6.109-.89,18.972,18.972,0,0,0-10.427,2.932,19.843,19.843,0,0,0-7.247,8.6,37.6,37.6,0,0,0,0,27.737A19.587,19.587,0,0,0,623,294.116a19.1,19.1,0,0,0,10.377,2.9,20.872,20.872,0,0,0,6.078-.873,17.21,17.21,0,0,0,5.221-2.585,16.1,16.1,0,0,0,3.968-4.2,15.759,15.759,0,0,0,2.257-5.716l10.278.033A27.6,27.6,0,0,1,658,292.816,25.341,25.341,0,0,1,651.97,300a27.3,27.3,0,0,1-8.385,4.661,30.962,30.962,0,0,1-10.277,1.647,29.452,29.452,0,0,1-15.614-4.167A28.825,28.825,0,0,1,606.906,290.2q-3.938-7.775-3.937-18.546,0-10.8,3.953-18.562a28.954,28.954,0,0,1,10.8-11.924A29.38,29.38,0,0,1,633.308,237a31.936,31.936,0,0,1,10.03,1.532,26.932,26.932,0,0,1,8.384,4.479,24.958,24.958,0,0,1,6.16,7.182,27.911,27.911,0,0,1,3.295,9.668" transform="translate(-141.366 -55.564)" fill="#fdd22e"/>
        <path id="Path_263" data-name="Path 263" d="M52.149,242.514c1.975-6.163,4.838-11.009,31.25-25.309,25.523-13.872,31.686-29.5,31.686-50.4,0-32.344-16.72-46.431-61.175-46.431-19.812,0-38.959,5.06-51.284,12.54v36.532c14.086-9.462,29.5-14.522,45.78-14.522,14.967,0,20.027,3.966,20.027,12.984,0,11.881-7.043,18.488-26.634,28.394C9.906,212.458.375,229.048,0,252.458c5.443.291,10.909.421,16.36.505A556.277,556.277,0,0,0,116.41,244.5v-1.99Zm49.125,28.792q-15.181,3.238-30.538,5.757H116.41v-9.248q-7.544,1.849-15.135,3.491" transform="translate(0 -28.221)" fill="#fdd22e"/>
        <path id="Path_264" data-name="Path 264" d="M217.478,288.52q-22.806,8.521-46.308,14.928c.965,8.635,8.658,13.037,23.441,13.037,15.847,0,23.548-5.06,23.548-14.966v-8.36a14.9,14.9,0,0,0-.681-4.639" transform="translate(-40.131 -67.643)" fill="#fdd22e"/>
        <path id="Path_265" data-name="Path 265" d="M258.046,123.82a165.427,165.427,0,0,0-45.336,6.821v35.208c11.009-3.078,22.89-5.719,31.472-6.6v65.891a465.581,465.581,0,0,0,46.66-18.993V123.82ZM244.182,243.238v34.633h46.66V221a489.354,489.354,0,0,1-46.66,22.239" transform="translate(-49.87 -29.03)" fill="#fdd22e"/>
        <path id="Path_266" data-name="Path 266" d="M356.718,272.55c-15.847,0-23.548,5.06-23.548,14.959v8.367c0,9.9,7.7,14.967,23.548,14.967s23.548-5.068,23.548-14.967v-8.367c0-9.9-7.709-14.959-23.548-14.959" transform="translate(-78.112 -63.899)" fill="#fdd22e"/>
        <path id="Path_267" data-name="Path 267" d="M425.066,126.3a165.469,165.469,0,0,0-45.336,6.821v35.215c7.946-2.228,16.344-4.226,23.633-5.489q3.56-2.641,7.066-5.382A403.087,403.087,0,0,0,445.874,126.3Zm24.237,0a411.7,411.7,0,0,1-38.1,38.561V280.352h46.66V126.3Z" transform="translate(-89.028 -29.611)" fill="#fdd22e"/>
        <path id="Path_268" data-name="Path 268" d="M525.777,50.649l10.174,31.3L509.318,62.607,482.692,81.952l.651-2.006q3.548-4.536,6.959-9.179c-2.075,2.427-4.172,4.815-6.308,7.189l8.873-27.307L466.24,31.3h32.911L509.318,0l10.174,31.3H552.4Z" transform="translate(-109.31)" fill="#fdd22e"/>
      </g>
    </g>
  </g>
</svg>
