<svg id="Group_204" data-name="Group 204" xmlns="http://www.w3.org/2000/svg" xmlns:xlink="http://www.w3.org/1999/xlink" width="1920" height="558" viewBox="0 0 1920 558">
  <defs>
    <clipPath id="clip-path">
      <rect id="Rectangle_92" data-name="Rectangle 92" width="1920" height="558" fill="none"/>
    </clipPath>
  </defs>
  <rect id="Rectangle_91" data-name="Rectangle 91" width="1920" height="558" fill="#363636"/>
  <g id="Group_203" data-name="Group 203">
    <g id="Group_202" data-name="Group 202" clip-path="url(#clip-path)">
      <path id="Path_294" data-name="Path 294" d="M1295.98,141.88c-174.71,30.28-355.38,61.6-498.95,96.32-8.72-25.42-24.44-48.88-46.94-70-46.21-43.39-119.84-49.85-218.84-19.21-74.28,23-164.21,67.11-267.3,131.11C159.24,345.11,61.56,418.03,0,466.1v58.61c55.51-44.35,167.31-130.5,288.58-205.76,99.69-61.86,185.97-104.27,256.44-126.07,81.94-25.33,140.35-22.36,173.59,8.85,16.79,15.77,27.4,31.91,33.51,47.76-143.07,37.48-220.65,73.64-249.28,115.63-11.15,16.35-15.12,34.35-11.48,52.05,5.16,25.18,15.51,45.37,30.73,60.02,14.59,14.04,32.9,22.43,54.43,24.95,36.25,4.23,78.83-8.73,119.89-36.5,40.2-27.19,72.64-64.31,91.33-104.53,12.11-26.04,17.91-52.04,17.34-77.53l2.1-.51c142.21-34.43,322.4-65.66,496.66-95.86,152.6-26.45,296.73-51.43,417.32-78.37C1807.91,89.45,1873.2,70.99,1920,52.42V2.66c-113.02,50.66-372.28,95.59-624.02,139.22M746.03,341.73C715.69,407.01,635.9,462.76,581.86,456.45c-24.46-2.86-39.33-18.73-45.44-48.53-.77-3.72-.95-8.99,4.43-16.89,8.1-11.88,29.83-30.91,87.35-54.05,34.48-13.87,77.48-27.6,130.55-41.66-1.32,17.14-6.48,32.97-12.72,46.41" fill="#2b2b2b"/>
    </g>
  </g>
</svg>
