<svg id="Group_145" data-name="Group 145" xmlns="http://www.w3.org/2000/svg" xmlns:xlink="http://www.w3.org/1999/xlink" width="71.859" height="71.936" viewBox="0 0 71.859 71.936">
  <defs>
    <clipPath id="clip-path">
      <rect id="Rectangle_74" data-name="Rectangle 74" width="71.859" height="71.936" fill="#348f99"/>
    </clipPath>
  </defs>
  <g id="Group_142" data-name="Group 142" clip-path="url(#clip-path)">
    <path id="Path_259" data-name="Path 259" d="M68.378,48.4c-2.421-2.063-4.955-4.016-7.57-5.828a11.591,11.591,0,0,0-14.121.6c-1.041.834-2.068,1.691-3.09,2.552a1.957,1.957,0,0,1-2.357.258,35.431,35.431,0,0,1-15.379-15.4,1.879,1.879,0,0,1,.243-2.272c.839-1,1.681-2,2.5-3.014a11.651,11.651,0,0,0,.518-14.5C27.37,8.327,25.5,5.929,23.558,3.6A9.508,9.508,0,0,0,11.466,1.207,24.948,24.948,0,0,0,6.924,4.515a19.477,19.477,0,0,0-6.9,14.437A35.989,35.989,0,0,0,6.992,41.938,107.055,107.055,0,0,0,28.837,64.1a37.029,37.029,0,0,0,22.834,7.84c.968-.061,1.946-.054,2.9-.195,6.8-1,11.883-4.632,15.544-10.334a9.678,9.678,0,0,0-1.739-13" transform="translate(0 0)" fill="#348f99"/>
    <path id="Path_260" data-name="Path 260" d="M149.742,43.7c2.033.013,4.065,0,6.1,0,4.642,0,9.284.007,13.925,0,1.954,0,3.653-1.253,3.693-3.049a68.321,68.321,0,0,0-.256-9.7,10.669,10.669,0,0,0-4.09-7.152c2.078-5.807,1.046-10.336-3.082-13.414a10.506,10.506,0,0,0-12.478-.074c-4.206,3.068-5.232,7.482-3.147,13.6a4.791,4.791,0,0,0-.535.3,3.282,3.282,0,0,0-.54.482,11.866,11.866,0,0,0-3.146,6.637c-.265,2.859-.224,5.749-.242,8.626a3.576,3.576,0,0,0,3.8,3.745m9.92-33.584a8.7,8.7,0,1,1-8.626,8.741,8.69,8.69,0,0,1,8.626-8.741M148,31.572a9.972,9.972,0,0,1,2.82-5.793,11.4,11.4,0,0,0,17.824-.011,11.182,11.182,0,0,1,3,6.893c.139,2.421.1,4.853.087,7.28a1.786,1.786,0,0,1-2.022,1.941q-9.97.014-19.94,0c-1.135,0-1.97-.605-1.969-1.589,0-2.908-.038-5.828.2-8.721" transform="translate(-110.441 -6.277)" fill="#348f99"/>
  </g>
</svg>
