<svg xmlns="http://www.w3.org/2000/svg" viewBox="0 0 572.7 322.99"><defs><style>.cls-1{fill:#008f9f;}.cls-2{fill:#ffd100;}</style></defs><title>Logo_Icon_1</title><g id="Layer_2" data-name="Layer 2"><g id="Layer_1-2" data-name="Layer 1"><g id="PMS_3541" data-name="PMS 3541"><rect class="cls-1" x="144.44" y="177.62" width="13.43" height="13.44"></rect><rect class="cls-1" x="163.46" y="177.62" width="13.45" height="13.44"></rect><rect class="cls-1" x="144.44" y="196.04" width="13.43" height="13.42"></rect><rect class="cls-1" x="163.46" y="196.04" width="13.45" height="13.42"></rect><polygon class="cls-1" points="250.79 178.99 160.52 139.95 160.52 152.52 250.79 191.51 250.79 178.99"></polygon><polygon class="cls-1" points="70.6 191.63 160.52 152.52 160.52 139.95 70.35 178.95 70.6 191.63"></polygon><rect class="cls-1" x="378.49" y="152.94" width="13.44" height="13.43"></rect><rect class="cls-1" x="397.51" y="152.94" width="13.44" height="13.43"></rect><rect class="cls-1" x="378.49" y="171.35" width="13.44" height="13.43"></rect><rect class="cls-1" x="397.51" y="171.35" width="13.44" height="13.43"></rect><polygon class="cls-1" points="367.95 223.62 314.38 184.59 314.38 197.15 367.95 236.14 367.95 223.62"></polygon><polygon class="cls-1" points="261.02 236.27 314.38 197.15 314.38 184.59 260.87 223.57 261.02 236.27"></polygon><polygon class="cls-1" points="394.05 109.29 394.05 122.32 394.05 122.44 527.45 180.12 527.45 166.97 394.05 109.29"></polygon><polygon class="cls-1" points="394.05 122.43 394.05 109.41 394.05 109.29 260.82 166.89 260.73 186.11 260.8 186.09 260.82 180.05 394.05 122.43"></polygon><rect class="cls-1" x="85.35" y="177.27" width="10.27" height="84.14"></rect><rect class="cls-1" x="504.67" y="164.61" width="10.27" height="96.8"></rect><rect class="cls-1" x="224.68" y="177.27" width="10.26" height="36.21"></rect><rect class="cls-1" x="260.82" y="171.21" width="10.25" height="42.27"></rect><rect class="cls-1" x="271.07" y="218.94" width="10.28" height="42.48"></rect><rect class="cls-1" x="348.71" y="218.94" width="10.27" height="42.48"></rect><rect class="cls-1" x="224.68" y="203.21" width="36.2" height="10.27"></rect></g><g id="PMS_109" data-name="PMS 109"><path class="cls-2" d="M327.33,24.94C390,38.34,439.52,78.76,465.65,130.59A191.45,191.45,0,0,0,324.14,4.28C220.68-17.85,118.86,48.09,96.74,151.55q-1,4.86-1.83,9.74C121.21,63.3,223.14,2.67,327.33,24.94Z"></path><path class="cls-2" d="M281.47,289.87C403,289.87,509.69,303.08,571,323c-52-25.71-161.15-43.42-287.44-43.42-120,0-224.57,16-279.28,39.67C67,301.43,167.76,289.87,281.47,289.87Z"></path><path class="cls-2" d="M280.12,297.75c122.78,0,230.63,10.06,292.58,25.24-52.52-19.6-164.31-34.55-291.93-34.55C159.46,288.44,55.27,302.1,0,320.13,63.37,306.54,165.21,297.75,280.12,297.75Z"></path><rect class="cls-2" x="307.11" y="230.8" width="16.26" height="30.68"></rect></g></g></g></svg>